<?xml version="1.0" encoding="UTF-8" ?>
<!DOCTYPE svg PUBLIC "-//W3C//DTD SVG 1.1//EN" "http://www.w3.org/Graphics/SVG/1.1/DTD/svg11.dtd">
<svg width="512pt" height="512pt" viewBox="0 0 512 512" version="1.1" xmlns="http://www.w3.org/2000/svg">
<g id="#000000ff">
<path fill="#000000" opacity="1.00" d=" M 194.42 26.46 C 197.51 26.58 200.48 27.57 203.44 28.39 C 273.92 47.32 344.42 66.18 414.91 85.06 C 418.01 85.88 421.24 86.39 424.12 87.87 C 444.61 161.78 463.89 236.12 484.02 310.17 C 484.70 312.60 485.48 315.04 485.56 317.58 C 483.31 320.93 480.11 323.45 477.32 326.32 C 426.98 376.65 376.65 426.99 326.32 477.31 C 323.45 480.11 320.93 483.31 317.58 485.56 C 315.58 485.49 313.63 484.99 311.72 484.46 C 237.17 464.11 162.28 444.80 87.86 424.12 C 86.39 421.24 85.88 418.01 85.06 414.92 C 66.42 345.25 47.73 275.59 29.09 205.92 C 28.09 202.12 26.67 198.38 26.46 194.42 C 28.68 191.06 31.90 188.55 34.68 185.68 C 85.02 135.35 135.35 85.02 185.68 34.68 C 188.55 31.90 191.06 28.68 194.42 26.46 M 197.81 50.80 C 150.52 98.17 103.17 145.50 55.81 192.81 C 52.83 196.12 47.18 199.20 49.35 204.45 C 67.78 272.18 85.31 340.23 104.18 407.79 C 169.33 425.99 234.95 442.84 300.25 460.68 C 304.02 461.70 307.80 462.99 311.74 463.09 C 315.89 460.19 318.99 456.10 322.66 452.66 C 366.84 408.51 410.99 364.33 455.17 320.17 C 457.85 317.43 460.95 315.02 463.03 311.75 C 463.16 307.26 461.38 303.00 460.24 298.72 C 442.68 233.90 425.76 168.85 407.78 104.18 C 403.42 102.12 398.57 101.49 393.97 100.19 C 330.81 83.17 267.60 66.36 204.45 49.35 C 202.07 48.62 199.44 48.67 197.81 50.80 Z" />
<path fill="#000000" opacity="1.00" d=" M 242.43 135.67 C 270.50 132.57 299.37 139.63 322.93 155.14 C 363.33 181.36 384.91 233.20 374.49 280.31 C 367.98 313.26 346.91 342.92 317.94 359.92 C 281.79 381.89 234.06 382.69 197.26 361.77 C 168.48 345.97 146.68 317.95 138.83 286.02 C 129.47 250.81 137.45 211.54 159.75 182.72 C 179.26 156.46 210.10 139.54 242.43 135.67 M 243.42 155.69 C 196.22 160.97 156.63 203.37 155.15 250.92 C 153.08 283.86 168.92 317.05 195.40 336.62 C 221.57 356.83 258.14 362.63 289.23 351.33 C 327.79 338.23 356.44 299.92 356.89 259.03 C 358.43 226.00 341.63 193.23 314.89 174.07 C 294.53 159.12 268.45 152.64 243.42 155.69 Z" />
</g>
</svg>
