<?xml version="1.0" encoding="UTF-8" ?>
<!DOCTYPE svg PUBLIC "-//W3C//DTD SVG 1.1//EN" "http://www.w3.org/Graphics/SVG/1.1/DTD/svg11.dtd">
<svg width="512pt" height="512pt" viewBox="0 0 512 512" version="1.1" xmlns="http://www.w3.org/2000/svg">
<g id="#000000ff">
<path fill="#000000" opacity="1.00" d=" M 207.34 31.23 C 242.58 16.37 284.40 18.76 317.94 37.02 C 350.80 54.49 375.24 86.99 382.90 123.41 C 386.19 137.98 385.96 153.06 385.58 167.89 C 385.57 173.43 380.20 177.12 375.01 176.94 C 359.31 177.12 343.60 176.96 327.91 177.01 C 323.01 177.30 317.73 174.44 316.84 169.32 C 315.59 161.26 316.99 153.06 316.20 144.96 C 314.61 124.09 300.74 104.80 281.73 96.19 C 264.00 87.69 242.02 88.96 225.34 99.32 C 208.10 109.65 196.69 129.06 196.46 149.21 C 196.35 170.74 196.39 192.28 196.42 213.81 C 265.46 214.73 334.56 213.72 403.61 214.31 C 423.74 214.85 441.33 232.83 441.35 252.98 C 441.48 319.31 441.37 385.66 441.40 452.00 C 441.56 468.57 429.94 484.04 414.39 489.34 C 405.93 492.38 396.81 491.51 388.00 491.60 C 300.33 491.59 212.67 491.59 125.00 491.60 C 116.72 491.53 108.22 492.26 100.17 489.81 C 88.19 486.27 78.13 476.83 73.92 465.05 C 70.88 457.06 71.61 448.37 71.59 440.00 C 71.60 382.34 71.59 324.67 71.59 267.00 C 71.64 257.78 70.74 248.14 74.40 239.42 C 78.94 227.74 89.26 218.57 101.42 215.51 C 109.78 213.32 118.47 214.66 126.98 213.95 C 127.76 189.65 126.57 165.30 127.60 141.00 C 130.40 93.20 162.91 48.87 207.34 31.23 M 206.60 53.58 C 172.02 71.14 147.87 108.18 147.38 147.18 C 147.28 169.40 147.24 191.63 147.37 213.85 C 156.93 214.44 166.53 214.32 176.10 213.95 C 176.85 192.04 176.02 170.10 176.47 148.18 C 176.97 120.22 193.58 93.39 218.22 80.25 C 238.97 68.98 264.82 67.45 286.70 76.44 C 310.78 86.00 329.32 108.07 334.71 133.40 C 336.58 141.08 336.35 149.03 336.91 156.86 C 346.49 157.13 356.10 157.22 365.68 156.78 C 366.97 129.23 358.01 101.10 339.81 80.22 C 319.59 56.12 288.54 41.26 256.99 41.57 C 239.53 41.28 222.11 45.62 206.60 53.58 M 109.33 234.41 C 100.92 235.08 93.51 241.91 92.12 250.22 C 91.16 256.10 91.69 262.07 91.62 268.00 C 91.61 325.67 91.66 383.33 91.60 441.00 C 91.71 447.85 90.65 455.36 94.39 461.51 C 98.12 468.10 105.59 471.87 113.08 471.60 C 208.99 471.57 304.92 471.64 400.83 471.57 C 411.84 471.92 421.86 462.15 421.36 451.05 C 421.36 385.35 421.42 319.64 421.34 253.94 C 421.60 242.70 411.05 233.38 400.01 234.15 C 303.13 234.34 206.20 233.81 109.33 234.41 Z" />
</g>
</svg>
