<?xml version="1.0" encoding="utf-8"?>
<!-- Generator: Adobe Illustrator 23.0.1, SVG Export Plug-In . SVG Version: 6.00 Build 0)  -->
<svg version="1.1" id="Livello_1" xmlns="http://www.w3.org/2000/svg" xmlns:xlink="http://www.w3.org/1999/xlink" x="0px" y="0px"
	 viewBox="0 0 119.2 89" style="enable-background:new 0 0 119.2 89;" xml:space="preserve">
<style type="text/css">
	.st0{fill:#FFFFFF;}
	.st1{fill:none;}
</style>
<path class="st0" d="M14.4,46.6c0,2.9,0.2,5,0.8,6.3c0.5,1.4,1.4,2.6,2.6,3.7H2.2c1.2-1.1,2-2.3,2.6-3.7c0.5-1.4,0.8-3.5,0.8-6.3V10
	c0-2.9-0.3-5-0.8-6.3C4.3,2.3,3.4,1.1,2.2,0h20.3c6.1,0,11,1.4,14.7,4.2c3.6,2.8,5.5,6.6,5.5,11.3c0,4.6-1.7,8.3-5,11.1
	c-3.3,2.8-7.8,4.2-13.3,4.2c-0.9,0-1.9-0.1-3-0.2c-1.1-0.1-2.2-0.3-3.4-0.5c5.1-1,8.9-2.6,11.5-4.9c2.6-2.3,3.9-5.2,3.9-8.7
	c0-3.3-1.1-5.8-3.4-7.7C27.8,6.9,24.7,6,20.8,6C20,6,19,6,18,6.2c-1.1,0.1-2.2,0.3-3.5,0.6L14.4,46.6L14.4,46.6z"/>
<path class="st0" d="M40.2,56.7c1.4-1.4,2.5-2.9,3.2-4.4c0.8-1.5,1.3-3.2,1.6-5.2L50.8,9C50.9,8,51,7.3,51.1,6.6
	c0.1-0.6,0.1-1.2,0.1-1.7c0-0.8-0.2-1.6-0.5-2.2c-0.3-0.6-1.1-1.5-2.3-2.7h14.4l17,42.1L96.3,0h13.8c-0.8,0.8-1.5,1.6-1.8,2.6
	c-0.4,0.9-0.6,2-0.6,3.3c0,0.6,0,1.2,0,1.6c0,0.4,0.1,0.9,0.1,1.3l4.9,38.9c0.2,1.9,0.6,3.6,1.3,5c0.6,1.4,1.5,2.8,2.7,4h-15.4
	c1.1-0.8,1.8-1.7,2.3-2.8c0.5-1.1,0.8-2.3,0.8-3.7c0-0.3,0-0.6,0-0.8c0-0.2,0-0.4-0.1-0.6L99.8,9L80.2,57.4
	c-1.5-0.9-2.8-2.1-3.9-3.7c-1.1-1.6-2.2-3.7-3.4-6.4L57.2,9.1l-5.6,37.3c-0.2,1.2-0.3,2-0.4,2.5c-0.1,0.5-0.1,0.9-0.1,1.2
	c0,1.4,0.3,2.5,0.8,3.5c0.5,1,1.4,2,2.7,3L40.2,56.7L40.2,56.7z"/>
<rect x="2.2" y="0" class="st1" width="114.6" height="76.8"/>
<polygon class="st0" points="2.2,60.3 59.5,60.3 116.8,60.3 116.8,60.2 59.5,59.1 2.2,60.2 "/>
<g>
	<path class="st0" d="M22,68.4h-0.1c-1.5-1.7-4.3-2.2-6.6-2.2c-5.8,0-10.1,3.8-10.1,9.7c0,5.9,4.7,10.4,10.5,10.4
		c1.7,0,3.5-0.2,5.1-0.7v-5.3c0-1.7,0-3.5-1.7-4.2v-0.1h5.6v0.1c-0.2,0.4-0.2,1-0.2,1.6v8.5c0,0.6,0,1.1,0.2,1.7
		C21.8,88.4,19,89,16,89C6.5,89,1,83.8,1,76.4c0-7.9,6.3-12.9,15.2-12.9c2,0,3.9,0.2,5.8,0.6V68.4z"/>
	<path class="st0" d="M35.5,64.1c4.9,0,7.6,2.6,7.6,5.9c0,3.2-2.8,5.8-5.9,6.5l5.3,6.7c1.5,1.9,3.9,3.8,6,5.2h-3.4
		c-2,0-3.2-0.5-4.3-1.8L36.4,81L33,75.8c2.9-0.4,6.4-1.8,6.4-5.3c0-2.7-2.3-4.2-4.8-4.1c-0.8,0-1.7,0.1-2.5,0.3v16.5
		c0,1.7-0.2,4.4,1.7,5.1v0.1h-7v-0.1c1.9-0.7,1.6-3.4,1.6-5.1V69.3c0-1.7,0.3-4.4-1.6-5.1v-0.1H35.5z"/>
	<path class="st0" d="M50.2,75.9c0,5.2,3.7,10.5,9.4,10.5c5.6,0,9.2-4.1,9.2-9.6c0-5.4-3.4-10.6-9.3-10.6
		C53.9,66.2,50.2,70.3,50.2,75.9 M73.1,76c0,7.5-6.2,13-13.6,13C52.2,89,46,83.8,46,76.2c0-7,6.1-12.9,13.8-12.7
		C67.6,63.5,73.1,69.4,73.1,76"/>
	<path class="st0" d="M92.2,86c-1.6,2.1-4.6,3-7.2,3c-2.4,0-5-0.8-6.7-2.6c-2-2.1-1.9-4.6-1.9-7.3v-9.8c0-1.7,0.3-4.4-1.6-5.1v-0.1
		h7v0.1c-1.8,0.7-1.6,3.4-1.6,5.1v9.8c0,4.9,2.1,7.2,5.9,7.2c2.1,0,4.2-0.8,5.4-2.6c0.8-1.1,0.8-2,0.8-3.4V69.3
		c0-1.7,0.2-4.4-1.6-5.1v-0.1h7l0,0.1C95.8,65,96,67.6,96,69.3v13.9c0,1.7-0.2,4.4,1.7,5.1v0.1h-5.4V86z"/>
	<path class="st0" d="M109.6,64.1c4.8,0,8.4,2.3,8.4,6.5c0,4.2-3.9,6.9-8.1,6.9c-0.9,0-1.8-0.1-2.7-0.5c3.2-0.2,6.6-2.1,6.6-5.7
		c0-3.2-2.3-4.5-5.2-4.5c-0.9,0-1.7,0.1-2.6,0.2v16.6c0,2.1,0,3.5,1.9,4.6v0.1h-7.3v-0.1c1.9-0.7,1.7-3.4,1.7-5.1V69.3
		c0-1.7,0.2-4.4-1.6-5.1v-0.1H109.6z"/>
</g>
</svg>
