<?xml version="1.0" encoding="utf-8"?>
<!-- Generator: Adobe Illustrator 18.0.0, SVG Export Plug-In . SVG Version: 6.00 Build 0)  -->
<!DOCTYPE svg PUBLIC "-//W3C//DTD SVG 1.1//EN" "http://www.w3.org/Graphics/SVG/1.1/DTD/svg11.dtd">
<svg version="1.1" id="Layer_1" xmlns="http://www.w3.org/2000/svg" xmlns:xlink="http://www.w3.org/1999/xlink" x="0px" y="0px"
	 viewBox="0 0 50 44.9" enable-background="new 0 0 50 44.9" xml:space="preserve">
<path fill="#010101" d="M49,30h-2V2h2c0.6,0,1-0.4,1-1s-0.4-1-1-1H1C0.4,0,0,0.4,0,1s0.4,1,1,1h2v28H1c-0.6,0-1,0.4-1,1s0.4,1,1,1
	h21.6L11.8,43.2c-0.4,0.4-0.4,1,0,1.4c0.2,0.2,0.4,0.3,0.7,0.3c0.3,0,0.5-0.1,0.7-0.3L24,33.5v7.6c0,0.6,0.4,1,1,1s1-0.4,1-1v-7.6
	l10.8,11.1c0.2,0.2,0.5,0.3,0.7,0.3c0.3,0,0.5-0.1,0.7-0.3c0.4-0.4,0.4-1,0-1.4L27.4,32H49c0.6,0,1-0.4,1-1S49.6,30,49,30z M5,2h40
	v28H5V2z M29,19.7L20.7,14l-4,5.5c-0.2,0.3-0.5,0.4-0.8,0.4c-0.2,0-0.4-0.1-0.6-0.2c-0.4-0.3-0.5-1-0.2-1.4l4.6-6.3
	c0.3-0.4,0.9-0.5,1.4-0.2l8.3,5.7l4-5.5c0.3-0.4,1-0.5,1.4-0.2c0.4,0.3,0.5,1,0.2,1.4l-4.6,6.2C30.1,19.9,29.4,20,29,19.7z"/>
</svg>
