<?xml version="1.0" encoding="UTF-8" ?>
<!DOCTYPE svg PUBLIC "-//W3C//DTD SVG 1.1//EN" "http://www.w3.org/Graphics/SVG/1.1/DTD/svg11.dtd">
<svg width="512pt" height="512pt" viewBox="0 0 512 512" version="1.1" xmlns="http://www.w3.org/2000/svg">
<g id="#000000ff">
<path fill="#000000" opacity="1.00" d=" M 253.41 16.46 C 258.89 15.50 263.28 19.77 267.55 22.48 C 314.74 55.62 378.55 63.43 432.24 42.29 C 437.00 40.04 443.63 40.58 446.38 45.59 C 449.04 51.50 449.11 58.18 450.51 64.44 C 455.76 96.44 462.84 128.18 466.53 160.42 C 473.59 230.78 456.64 303.22 419.25 363.23 C 382.37 422.97 325.43 470.11 259.66 494.76 C 253.47 497.25 247.39 493.40 241.74 491.24 C 186.45 468.32 137.78 429.67 103.17 380.82 C 59.26 319.71 37.73 242.91 43.65 167.88 C 46.67 132.74 54.97 98.34 60.61 63.58 C 61.87 58.15 61.57 51.85 65.33 47.37 C 69.11 43.33 75.09 44.66 79.66 46.40 C 130.73 64.97 190.26 57.62 235.42 27.44 C 241.48 23.91 246.68 18.70 253.41 16.46 M 255.13 38.64 C 252.74 39.58 250.70 41.17 248.58 42.59 C 203.09 73.98 143.90 84.33 90.41 70.54 C 87.04 69.67 83.72 68.54 80.25 68.20 C 75.24 92.62 71.30 117.30 66.81 141.85 C 54.11 215.76 70.28 294.06 111.03 356.99 C 144.46 409.33 194.51 450.81 252.15 473.93 C 254.27 474.86 256.63 474.67 258.73 473.76 C 295.51 458.76 329.44 436.66 357.68 408.69 C 403.04 364.05 433.72 304.81 444.05 242.01 C 450.18 205.82 449.41 168.58 442.43 132.57 C 438.11 109.98 434.95 87.10 429.93 64.69 C 374.63 82.31 311.64 74.89 262.80 43.20 C 260.30 41.60 257.96 39.64 255.13 38.64 Z" />
<path fill="#000000" opacity="1.00" d=" M 251.40 129.44 C 257.62 127.46 264.78 130.47 267.60 136.39 C 275.23 151.22 282.19 166.40 289.71 181.29 C 290.83 184.41 294.38 184.45 297.14 184.91 C 310.86 186.63 324.49 188.96 338.20 190.74 C 342.58 191.38 347.40 192.03 350.65 195.35 C 355.95 200.41 356.12 209.69 350.83 214.83 C 339.05 226.72 326.83 238.18 315.06 250.07 C 312.62 252.06 313.52 255.31 313.92 257.97 C 316.67 273.04 319.22 288.15 321.73 303.26 C 324.55 313.68 312.74 323.97 302.93 319.02 C 287.91 311.53 273.22 303.36 258.35 295.58 C 256.56 294.51 254.42 294.36 252.63 295.51 C 237.73 303.26 223.04 311.44 208.04 318.97 C 199.00 323.64 187.24 315.07 188.90 305.05 C 191.39 288.13 194.63 271.31 197.40 254.43 C 197.93 252.50 196.72 250.89 195.43 249.61 C 183.51 237.85 171.32 226.35 159.62 214.36 C 152.78 207.54 156.45 194.17 165.93 192.01 C 183.65 188.52 201.87 187.35 219.49 183.51 C 226.53 171.58 231.86 158.61 238.28 146.29 C 241.59 140.09 243.76 131.58 251.40 129.44 M 255.26 157.06 C 247.89 170.27 242.85 184.85 234.39 197.40 C 230.84 201.59 225.40 203.45 220.10 204.11 C 207.78 205.77 195.51 207.78 183.18 209.32 C 189.44 216.53 196.77 222.74 203.41 229.60 C 208.09 234.58 214.18 238.76 216.59 245.43 C 219.09 252.60 216.37 260.10 215.34 267.28 C 213.94 276.45 211.90 285.53 210.92 294.76 C 222.96 289.10 234.42 282.26 246.33 276.34 C 252.02 273.45 258.96 273.46 264.63 276.39 C 276.48 282.34 287.92 289.16 299.95 294.76 C 298.28 281.33 295.23 268.11 293.39 254.71 C 292.34 248.08 295.11 241.45 299.89 236.90 C 308.94 227.80 318.55 219.24 327.24 209.80 C 313.87 206.74 300.06 205.96 286.61 203.31 C 281.33 202.16 276.59 198.77 273.97 194.02 C 267.36 181.90 262.20 168.99 255.26 157.06 Z" />
</g>
</svg>
